<?xml version="1.0" encoding="UTF-8" standalone="no"?>
<!DOCTYPE svg PUBLIC "-//W3C//DTD SVG 1.1//EN"
 "http://www.w3.org/Graphics/SVG/1.1/DTD/svg11.dtd">
<!-- Generated by graphviz version 2.40.1 (20161225.0304)
 -->
<!-- Title: %0 Pages: 1 -->
<svg width="208pt" height="206pt"
 viewBox="0.00 0.00 207.92 205.80" xmlns="http://www.w3.org/2000/svg" xmlns:xlink="http://www.w3.org/1999/xlink">
<g id="graph0" class="graph" transform="scale(1 1) rotate(0) translate(4 201.8)">
<title>%0</title>
<polygon fill="#ffffff" stroke="transparent" points="-4,4 -4,-201.8 203.9183,-201.8 203.9183,4 -4,4"/>
<!-- 生成 Token -->
<g id="node1" class="node">
<title>生成 Token</title>
<polygon fill="none" stroke="#000000" points="90.0478,-197.8 13.5124,-197.8 13.5124,-161.8 90.0478,-161.8 90.0478,-197.8"/>
<text text-anchor="middle" x="51.7801" y="-175.6" font-family="Times,serif" font-size="14.00" fill="#000000">生成 Token</text>
</g>
<!-- 获取账号信息 -->
<g id="node2" class="node">
<title>获取账号信息</title>
<polygon fill="none" stroke="#000000" points="103.3412,-124.8 .219,-124.8 .219,-88.8 103.3412,-88.8 103.3412,-124.8"/>
<text text-anchor="middle" x="51.7801" y="-102.6" font-family="Times,serif" font-size="14.00" fill="#000000">获取账号信息</text>
</g>
<!-- 生成 Token&#45;&gt;获取账号信息 -->
<g id="edge1" class="edge">
<title>生成 Token&#45;&gt;获取账号信息</title>
<path fill="none" stroke="#000000" d="M51.7801,-161.7551C51.7801,-153.6828 51.7801,-143.9764 51.7801,-134.9817"/>
<polygon fill="#000000" stroke="#000000" points="55.2802,-134.8903 51.7801,-124.8904 48.2802,-134.8904 55.2802,-134.8903"/>
</g>
<!-- 获取线索文件 -->
<g id="node3" class="node">
<title>获取线索文件</title>
<polygon fill="none" stroke="#000000" points="102.0015,-36 1.5587,-36 1.5587,0 102.0015,0 102.0015,-36"/>
<text text-anchor="middle" x="51.7801" y="-13.8" font-family="Times,serif" font-size="14.00" fill="#000000">获取线索文件</text>
</g>
<!-- 获取账号信息&#45;&gt;获取线索文件 -->
<g id="edge2" class="edge">
<title>获取账号信息&#45;&gt;获取线索文件</title>
<path fill="none" stroke="#000000" d="M51.7801,-88.4006C51.7801,-76.2949 51.7801,-60.2076 51.7801,-46.4674"/>
<polygon fill="#000000" stroke="#000000" points="55.2802,-46.072 51.7801,-36.072 48.2802,-46.0721 55.2802,-46.072"/>
<text text-anchor="middle" x="125.8492" y="-58.2" font-family="Times,serif" font-size="14.00" fill="#000000">若当前身份为管理员</text>
</g>
</g>
</svg>