<?xml version="1.0" encoding="UTF-8" standalone="no"?>
<!DOCTYPE svg PUBLIC "-//W3C//DTD SVG 1.1//EN"
 "http://www.w3.org/Graphics/SVG/1.1/DTD/svg11.dtd">
<!-- Generated by graphviz version 2.40.1 (20161225.0304)
 -->
<!-- Title: %0 Pages: 1 -->
<svg width="288pt" height="206pt"
 viewBox="0.00 0.00 288.00 205.93" xmlns="http://www.w3.org/2000/svg" xmlns:xlink="http://www.w3.org/1999/xlink">
<g id="graph0" class="graph" transform="scale(.467 .467) rotate(0) translate(4 437)">
<title>%0</title>
<polygon fill="#ffffff" stroke="transparent" points="-4,4 -4,-437 612.7522,-437 612.7522,4 -4,4"/>
<g id="clust2" class="cluster">
<title>cluster_1</title>
<polygon fill="none" stroke="#000000" points="137.5628,-8 137.5628,-352 364.5628,-352 364.5628,-8 137.5628,-8"/>
</g>
<g id="clust5" class="cluster">
<title>cluster_2</title>
<polygon fill="none" stroke="#000000" points="372.5628,-81 372.5628,-425 599.5628,-425 599.5628,-81 372.5628,-81"/>
</g>
<!-- Initialization Vector -->
<g id="node1" class="node">
<title>Initialization Vector</title>
<polygon fill="none" stroke="#009acd" points="129.1885,-271 -.0629,-271 -.0629,-235 129.1885,-235 129.1885,-271"/>
<text text-anchor="middle" x="64.5628" y="-248.8" font-family="Times,serif" font-size="14.00" fill="#009acd">Initialization Vector</text>
</g>
<!-- XOR 1 -->
<g id="node3" class="node">
<title>XOR 1</title>
<ellipse fill="#000000" stroke="#000000" cx="147.5628" cy="-180" rx="1.8" ry="1.8"/>
</g>
<!-- Initialization Vector&#45;&gt;XOR 1 -->
<g id="edge1" class="edge">
<title>Initialization Vector&#45;&gt;XOR 1</title>
<path fill="none" stroke="#000000" d="M85.0797,-234.9551C106.586,-216.0398 138.2949,-188.1513 145.8861,-181.4747"/>
</g>
<!-- Intermediary Value 1 -->
<g id="node2" class="node">
<title>Intermediary Value 1</title>
<polygon fill="none" stroke="#000000" points="356.2869,-198 220.8387,-198 220.8387,-162 356.2869,-162 356.2869,-198"/>
<text text-anchor="middle" x="288.5628" y="-175.8" font-family="Times,serif" font-size="14.00" fill="#000000">Intermediary Value 1</text>
</g>
<!-- Intermediary Value 1&#45;&gt;XOR 1 -->
<g id="edge2" class="edge">
<title>Intermediary Value 1&#45;&gt;XOR 1</title>
<path fill="none" stroke="#000000" d="M220.6564,-180C196.9345,-180 173.2125,-180 149.4905,-180"/>
</g>
<!-- Plain Text 1 -->
<g id="node5" class="node">
<title>Plain Text 1</title>
<polygon fill="none" stroke="#000000" points="230.0001,-52 145.1255,-52 145.1255,-16 230.0001,-16 230.0001,-52"/>
<text text-anchor="middle" x="187.5628" y="-29.8" font-family="Times,serif" font-size="14.00" fill="#000000">Plain Text 1</text>
</g>
<!-- XOR 1&#45;&gt;Plain Text 1 -->
<g id="edge4" class="edge">
<title>XOR 1&#45;&gt;Plain Text 1</title>
<path fill="none" stroke="#000000" d="M148.1283,-177.9361C151.522,-165.5489 169.3929,-100.3203 179.8759,-62.0573"/>
<polygon fill="#000000" stroke="#000000" points="183.3517,-62.616 182.6185,-52.0466 176.6005,-60.7663 183.3517,-62.616"/>
<text text-anchor="middle" x="188.3377" y="-102.8" font-family="Times,serif" font-size="14.00" fill="#000000">XOR</text>
</g>
<!-- Cipher Text1 -->
<g id="node4" class="node">
<title>Cipher Text1</title>
<polygon fill="none" stroke="#009acd" points="321.8234,-344 231.3022,-344 231.3022,-308 321.8234,-308 321.8234,-344"/>
<text text-anchor="middle" x="276.5628" y="-321.8" font-family="Times,serif" font-size="14.00" fill="#009acd">Cipher Text1</text>
</g>
<!-- Cipher Text1&#45;&gt;Intermediary Value 1 -->
<g id="edge3" class="edge">
<title>Cipher Text1&#45;&gt;Intermediary Value 1</title>
<path fill="none" stroke="#000000" d="M273.3092,-307.7661C270.5354,-289.3186 267.5533,-260.029 271.3734,-235 272.7621,-225.9016 275.3726,-216.2394 278.1475,-207.5937"/>
<polygon fill="#000000" stroke="#000000" points="281.5021,-208.6005 281.4171,-198.006 274.8767,-206.3411 281.5021,-208.6005"/>
<text text-anchor="middle" x="319.1575" y="-248.8" font-family="Times,serif" font-size="14.00" fill="#000000">Decrypt with key</text>
</g>
<!-- XOR 2 -->
<g id="node7" class="node">
<title>XOR 2</title>
<ellipse fill="#000000" stroke="#000000" cx="382.5628" cy="-253" rx="1.8" ry="1.8"/>
</g>
<!-- Cipher Text1&#45;&gt;XOR 2 -->
<g id="edge5" class="edge">
<title>Cipher Text1&#45;&gt;XOR 2</title>
<path fill="none" stroke="#000000" d="M313.6052,-307.9678C331.2851,-298.3718 352.1166,-285.5497 368.5628,-271 374.2559,-265.9635 379.2843,-258.3567 381.4428,-254.8681"/>
</g>
<!-- Intermediary Value 2 -->
<g id="node6" class="node">
<title>Intermediary Value 2</title>
<polygon fill="none" stroke="#000000" points="591.2869,-271 455.8387,-271 455.8387,-235 591.2869,-235 591.2869,-271"/>
<text text-anchor="middle" x="523.5628" y="-248.8" font-family="Times,serif" font-size="14.00" fill="#000000">Intermediary Value 2</text>
</g>
<!-- Intermediary Value 2&#45;&gt;XOR 2 -->
<g id="edge6" class="edge">
<title>Intermediary Value 2&#45;&gt;XOR 2</title>
<path fill="none" stroke="#000000" d="M455.6564,-253C431.9345,-253 408.2125,-253 384.4905,-253"/>
</g>
<!-- Plain Text 2 -->
<g id="node9" class="node">
<title>Plain Text 2</title>
<polygon fill="none" stroke="#000000" points="465.0001,-125 380.1255,-125 380.1255,-89 465.0001,-89 465.0001,-125"/>
<text text-anchor="middle" x="422.5628" y="-102.8" font-family="Times,serif" font-size="14.00" fill="#000000">Plain Text 2</text>
</g>
<!-- XOR 2&#45;&gt;Plain Text 2 -->
<g id="edge8" class="edge">
<title>XOR 2&#45;&gt;Plain Text 2</title>
<path fill="none" stroke="#000000" d="M383.1283,-250.9361C386.522,-238.5489 404.3929,-173.3203 414.8759,-135.0573"/>
<polygon fill="#000000" stroke="#000000" points="418.3517,-135.616 417.6185,-125.0466 411.6005,-133.7663 418.3517,-135.616"/>
<text text-anchor="middle" x="421.3377" y="-175.8" font-family="Times,serif" font-size="14.00" fill="#000000">XOR</text>
</g>
<!-- Cipher Text2 -->
<g id="node8" class="node">
<title>Cipher Text2</title>
<polygon fill="none" stroke="#009acd" points="539.8234,-417 449.3022,-417 449.3022,-381 539.8234,-381 539.8234,-417"/>
<text text-anchor="middle" x="494.5628" y="-394.8" font-family="Times,serif" font-size="14.00" fill="#009acd">Cipher Text2</text>
</g>
<!-- Cipher Text2&#45;&gt;Intermediary Value 2 -->
<g id="edge7" class="edge">
<title>Cipher Text2&#45;&gt;Intermediary Value 2</title>
<path fill="none" stroke="#000000" d="M498.177,-380.8042C503.1264,-355.8868 512.0633,-310.8938 517.9043,-281.4877"/>
<polygon fill="#000000" stroke="#000000" points="521.3876,-281.9154 519.903,-271.4251 514.5218,-280.5516 521.3876,-281.9154"/>
<text text-anchor="middle" x="560.1575" y="-321.8" font-family="Times,serif" font-size="14.00" fill="#000000">Decrypt with key</text>
</g>
</g>
</svg>