<?xml version="1.0" encoding="UTF-8" standalone="no"?>
<!DOCTYPE svg PUBLIC "-//W3C//DTD SVG 1.1//EN"
 "http://www.w3.org/Graphics/SVG/1.1/DTD/svg11.dtd">
<!-- Generated by graphviz version 2.40.1 (20161225.0304)
 -->
<!-- Title: g Pages: 1 -->
<svg width="432pt" height="204pt"
 viewBox="0.00 0.00 432.00 203.51" xmlns="http://www.w3.org/2000/svg" xmlns:xlink="http://www.w3.org/1999/xlink">
<g id="graph0" class="graph" transform="scale(.5838 .5838) rotate(0) translate(4 344.6)">
<title>g</title>
<polygon fill="#ffffff" stroke="transparent" points="-4,4 -4,-344.6 736,-344.6 736,4 -4,4"/>
<g id="clust1" class="cluster">
<title>cluster_0</title>
<polygon fill="none" stroke="#000000" points="127,-254.8 127,-332.6 321,-332.6 321,-254.8 127,-254.8"/>
<text text-anchor="middle" x="224" y="-316" font-family="Times,serif" font-size="14.00" fill="#000000">Entry</text>
</g>
<g id="clust2" class="cluster">
<title>cluster_1</title>
<polygon fill="none" stroke="#000000" points="8,-8 8,-246.8 724,-246.8 724,-8 8,-8"/>
<text text-anchor="middle" x="366" y="-230.2" font-family="Times,serif" font-size="14.00" fill="#000000">Inside</text>
</g>
<g id="clust3" class="cluster">
<title>cluster_1_0</title>
<polygon fill="none" stroke="#000000" points="16,-89 16,-214 340,-214 340,-89 16,-89"/>
</g>
<g id="clust4" class="cluster">
<title>cluster_1_1</title>
<polygon fill="none" stroke="#000000" points="348,-16 348,-214 716,-214 716,-16 348,-16"/>
</g>
<!-- queue_0_1 -->
<g id="node1" class="node">
<title>queue_0_1</title>
<polygon fill="none" stroke="#000000" points="134.9221,-263.3 134.9221,-299.3 313.0779,-299.3 313.0779,-263.3 134.9221,-263.3"/>
<text text-anchor="middle" x="178.4933" y="-277.1" font-family="Times,serif" font-size="14.00" fill="#000000">[0] buy(999)</text>
<polyline fill="none" stroke="#000000" points="222.0645,-263.3 222.0645,-299.3 "/>
<text text-anchor="middle" x="267.5712" y="-277.1" font-family="Times,serif" font-size="14.00" fill="#000000">[1] get_flag()</text>
</g>
<!-- trigger_1 -->
<g id="node2" class="node">
<title>trigger_1</title>
<ellipse fill="none" stroke="#000000" cx="178" cy="-188" rx="154.4597" ry="18"/>
<text text-anchor="middle" x="178" y="-183.8" font-family="Times,serif" font-size="14.00" fill="#000000">push([&#39;consume;999&#39;, &#39;view;index&#39;])</text>
</g>
<!-- queue_0_1&#45;&gt;trigger_1 -->
<g id="edge1" class="edge">
<title>queue_0_1:0&#45;&gt;trigger_1</title>
<path fill="none" stroke="#000000" d="M178,-263.3C178,-247.778 178,-230.4561 178,-216.343"/>
<polygon fill="#000000" stroke="#000000" points="181.5001,-216.259 178,-206.2591 174.5001,-216.2591 181.5001,-216.259"/>
</g>
<!-- trigger_2 -->
<g id="node4" class="node">
<title>trigger_2</title>
<ellipse fill="none" stroke="#000000" cx="470" cy="-188" rx="114.0054" ry="18"/>
<text text-anchor="middle" x="470" y="-183.8" font-family="Times,serif" font-size="14.00" fill="#000000">push(&#39;show_flag(FLAG)&#39;)</text>
</g>
<!-- queue_0_1&#45;&gt;trigger_2 -->
<g id="edge4" class="edge">
<title>queue_0_1:1&#45;&gt;trigger_2</title>
<path fill="none" stroke="#000000" d="M313,-281.3C366.5546,-281.3 417.7853,-240.6844 446.4451,-213.0487"/>
<polygon fill="#000000" stroke="#000000" points="448.9309,-215.5128 453.5732,-205.9892 444.0052,-210.5392 448.9309,-215.5128"/>
</g>
<!-- trigger_1&#45;&gt;queue_0_1 -->
<g id="edge2" class="edge">
<title>trigger_1&#45;&gt;queue_0_1:1</title>
<path fill="none" stroke="#000000" d="M221.6818,-205.3787C241.567,-216.0337 261.7958,-231.7734 266.8183,-253.1041"/>
<polygon fill="#000000" stroke="#000000" points="263.3719,-253.7695 268,-263.3 270.3253,-252.9635 263.3719,-253.7695"/>
</g>
<!-- queue_2_3 -->
<g id="node3" class="node">
<title>queue_2_3</title>
<polygon fill="none" stroke="#000000" points="63.6563,-97.5 63.6563,-133.5 292.3437,-133.5 292.3437,-97.5 63.6563,-97.5"/>
<text text-anchor="middle" x="121.6097" y="-111.3" font-family="Times,serif" font-size="14.00" fill="#000000">[2] consume(999)</text>
<polyline fill="none" stroke="#000000" points="179.5631,-97.5 179.5631,-133.5 "/>
<text text-anchor="middle" x="235.9534" y="-111.3" font-family="Times,serif" font-size="14.00" fill="#000000">[3] view(&#39;index&#39;)</text>
</g>
<!-- trigger_1&#45;&gt;queue_2_3 -->
<g id="edge3" class="edge">
<title>trigger_1&#45;&gt;queue_2_3</title>
<path fill="none" stroke="#000000" stroke-dasharray="5,2" d="M178,-169.7052C178,-161.832 178,-152.4471 178,-143.7167"/>
<polygon fill="#000000" stroke="#000000" points="181.5001,-143.5378 178,-133.5378 174.5001,-143.5378 181.5001,-143.5378"/>
</g>
<!-- queue_4 -->
<g id="node5" class="node">
<title>queue_4</title>
<polygon fill="none" stroke="#ff0000" points="355.9961,-97.5 355.9961,-133.5 496.0039,-133.5 496.0039,-97.5 355.9961,-97.5"/>
<text text-anchor="middle" x="426" y="-111.3" font-family="Times,serif" font-size="14.00" fill="#000000">[4] show_flag(FLAG)</text>
</g>
<!-- trigger_2&#45;&gt;queue_4 -->
<g id="edge5" class="edge">
<title>trigger_2&#45;&gt;queue_4</title>
<path fill="none" stroke="#000000" stroke-dasharray="5,2" d="M459.1236,-170.0786C454.0848,-161.7761 447.9895,-151.7327 442.4084,-142.5366"/>
<polygon fill="#000000" stroke="#000000" points="445.2373,-140.4517 437.0569,-133.7188 439.2531,-144.0835 445.2373,-140.4517"/>
</g>
<!-- trigger_3 -->
<g id="node6" class="node">
<title>trigger_3</title>
<ellipse fill="none" stroke="#000000" cx="611" cy="-115.5" rx="96.8412" ry="18"/>
<text text-anchor="middle" x="611" y="-111.3" font-family="Times,serif" font-size="14.00" fill="#000000">push(&#39;view(&quot;index&quot;)&#39;)</text>
</g>
<!-- trigger_2&#45;&gt;trigger_3 -->
<g id="edge6" class="edge">
<title>trigger_2&#45;&gt;trigger_3</title>
<path fill="none" stroke="#000000" d="M503.773,-170.6344C523.3606,-160.5628 548.1961,-147.7928 569.0318,-137.0794"/>
<polygon fill="#000000" stroke="#000000" points="570.6963,-140.1592 577.9891,-132.4737 567.4953,-133.9339 570.6963,-140.1592"/>
</g>
<!-- queue_5 -->
<g id="node7" class="node">
<title>queue_5</title>
<polygon fill="none" stroke="#000000" points="554.6097,-24.5 554.6097,-60.5 667.3903,-60.5 667.3903,-24.5 554.6097,-24.5"/>
<text text-anchor="middle" x="611" y="-38.3" font-family="Times,serif" font-size="14.00" fill="#000000">[5] view(&#39;index&#39;)</text>
</g>
<!-- trigger_3&#45;&gt;queue_5 -->
<g id="edge7" class="edge">
<title>trigger_3&#45;&gt;queue_5</title>
<path fill="none" stroke="#000000" stroke-dasharray="5,2" d="M611,-97.4551C611,-89.3828 611,-79.6764 611,-70.6817"/>
<polygon fill="#000000" stroke="#000000" points="614.5001,-70.5903 611,-60.5904 607.5001,-70.5904 614.5001,-70.5903"/>
</g>
</g>
</svg>