<?xml version="1.0" encoding="UTF-8" standalone="no"?>
<!DOCTYPE svg PUBLIC "-//W3C//DTD SVG 1.1//EN"
 "http://www.w3.org/Graphics/SVG/1.1/DTD/svg11.dtd">
<!-- Generated by graphviz version 2.40.1 (20161225.0304)
 -->
<!-- Title: G Pages: 1 -->
<svg width="230pt" height="288pt"
 viewBox="0.00 0.00 230.07 288.00" xmlns="http://www.w3.org/2000/svg" xmlns:xlink="http://www.w3.org/1999/xlink">
<g id="graph0" class="graph" transform="scale(.5839 .5839) rotate(0) translate(4 489.2)">
<title>G</title>
<polygon fill="#ffffff" stroke="transparent" points="-4,4 -4,-489.2 390,-489.2 390,4 -4,4"/>
<g id="clust1" class="cluster">
<title>cluster_0</title>
<polygon fill="none" stroke="#000000" stroke-dasharray="5,2" points="34,-345.4 34,-422.2 190,-422.2 190,-345.4 34,-345.4"/>
<text text-anchor="middle" x="112" y="-405.6" font-family="Times,serif" font-size="14.00" fill="#000000">发货</text>
</g>
<g id="clust2" class="cluster">
<title>cluster_1</title>
<polygon fill="none" stroke="#000000" stroke-dasharray="5,2" points="8,-65 8,-326.4 216,-326.4 216,-65 8,-65"/>
<text text-anchor="middle" x="112" y="-309.8" font-family="Times,serif" font-size="14.00" fill="#000000">支付</text>
</g>
<g id="clust3" class="cluster">
<title>cluster_2</title>
<polygon fill="none" stroke="#000000" stroke-dasharray="5,2" points="224,-138 224,-214.8 378,-214.8 378,-138 224,-138"/>
<text text-anchor="middle" x="301" y="-198.2" font-family="Times,serif" font-size="14.00" fill="#000000">回滚</text>
</g>
<!-- 添加钻石个数 -->
<g id="node1" class="node">
<title>添加钻石个数</title>
<ellipse fill="none" stroke="#000000" cx="112" cy="-371.4" rx="69.8608" ry="18"/>
<text text-anchor="middle" x="112" y="-367.2" font-family="Times,serif" font-size="14.00" fill="#000000">添加钻石个数</text>
</g>
<!-- 检查剩余点数 -->
<g id="node2" class="node">
<title>检查剩余点数</title>
<polygon fill="none" stroke="#000000" points="112,-293.6 16.347,-275.6 112,-257.6 207.653,-275.6 112,-293.6"/>
<text text-anchor="middle" x="112" y="-271.4" font-family="Times,serif" font-size="14.00" fill="#000000">检查剩余点数</text>
</g>
<!-- 添加钻石个数&#45;&gt;检查剩余点数 -->
<g id="edge2" class="edge">
<title>添加钻石个数&#45;&gt;检查剩余点数</title>
<path fill="none" stroke="#ff0000" stroke-dasharray="5,2" d="M112,-353.3808C112,-339.5527 112,-320.193 112,-304.2477"/>
<polygon fill="#ff0000" stroke="#ff0000" points="115.5001,-303.8641 112,-293.8642 108.5001,-303.8642 115.5001,-303.8641"/>
</g>
<!-- 扣除点数 -->
<g id="node3" class="node">
<title>扣除点数</title>
<ellipse fill="none" stroke="#000000" cx="112" cy="-91" rx="48.0974" ry="18"/>
<text text-anchor="middle" x="112" y="-86.8" font-family="Times,serif" font-size="14.00" fill="#000000">扣除点数</text>
</g>
<!-- 检查剩余点数&#45;&gt;扣除点数 -->
<g id="edge3" class="edge">
<title>检查剩余点数&#45;&gt;扣除点数</title>
<path fill="none" stroke="#000000" d="M112,-257.5637C112,-225.3053 112,-157.5196 112,-119.1101"/>
<polygon fill="#000000" stroke="#000000" points="115.5001,-119.1095 112,-109.1095 108.5001,-119.1096 115.5001,-119.1095"/>
<text text-anchor="middle" x="127.6149" y="-159.8" font-family="Times,serif" font-size="14.00" fill="#000000">足够</text>
</g>
<!-- 回滚钻石个数 -->
<g id="node4" class="node">
<title>回滚钻石个数</title>
<ellipse fill="none" stroke="#000000" cx="301" cy="-164" rx="68.9313" ry="18"/>
<text text-anchor="middle" x="301" y="-159.8" font-family="Times,serif" font-size="14.00" fill="#000000">回滚钻石个数</text>
</g>
<!-- 检查剩余点数&#45;&gt;回滚钻石个数 -->
<g id="edge5" class="edge">
<title>检查剩余点数&#45;&gt;回滚钻石个数</title>
<path fill="none" stroke="#000000" d="M136.6388,-262.1641C158.6532,-250.0566 191.7034,-231.6254 220,-214.8 235.36,-205.6668 252.1258,-195.2314 266.3988,-186.2042"/>
<polygon fill="#000000" stroke="#000000" points="268.3617,-189.1038 274.9287,-180.7896 264.6103,-183.1939 268.3617,-189.1038"/>
<text text-anchor="middle" x="221.7769" y="-227" font-family="Times,serif" font-size="14.00" fill="#000000">不足</text>
</g>
<!-- 交易成功 -->
<g id="node6" class="node">
<title>交易成功</title>
<ellipse fill="none" stroke="#000000" cx="112" cy="-18" rx="41.1548" ry="18"/>
<text text-anchor="middle" x="112" y="-13.8" font-family="Times,serif" font-size="14.00" fill="#000000">交易成功</text>
</g>
<!-- 扣除点数&#45;&gt;交易成功 -->
<g id="edge4" class="edge">
<title>扣除点数&#45;&gt;交易成功</title>
<path fill="none" stroke="#000000" d="M112,-72.9551C112,-64.8828 112,-55.1764 112,-46.1817"/>
<polygon fill="#000000" stroke="#000000" points="115.5001,-46.0903 112,-36.0904 108.5001,-46.0904 115.5001,-46.0903"/>
</g>
<!-- 交易失败 -->
<g id="node7" class="node">
<title>交易失败</title>
<ellipse fill="none" stroke="#000000" cx="301" cy="-91" rx="48.6772" ry="18"/>
<text text-anchor="middle" x="301" y="-86.8" font-family="Times,serif" font-size="14.00" fill="#000000">交易失败</text>
</g>
<!-- 回滚钻石个数&#45;&gt;交易失败 -->
<g id="edge6" class="edge">
<title>回滚钻石个数&#45;&gt;交易失败</title>
<path fill="none" stroke="#000000" d="M301,-145.9551C301,-137.8828 301,-128.1764 301,-119.1817"/>
<polygon fill="#000000" stroke="#000000" points="304.5001,-119.0903 301,-109.0904 297.5001,-119.0904 304.5001,-119.0903"/>
</g>
<!-- 开始交易 -->
<g id="node5" class="node">
<title>开始交易</title>
<ellipse fill="none" stroke="#000000" cx="112" cy="-467.2" rx="50.9696" ry="18"/>
<text text-anchor="middle" x="112" y="-463" font-family="Times,serif" font-size="14.00" fill="#000000">开始交易</text>
</g>
<!-- 开始交易&#45;&gt;添加钻石个数 -->
<g id="edge1" class="edge">
<title>开始交易&#45;&gt;添加钻石个数</title>
<path fill="none" stroke="#000000" d="M112,-449.1808C112,-435.3527 112,-415.993 112,-400.0477"/>
<polygon fill="#000000" stroke="#000000" points="115.5001,-399.6641 112,-389.6642 108.5001,-399.6642 115.5001,-399.6641"/>
</g>
</g>
</svg>