<?xml version="1.0" encoding="UTF-8" standalone="no"?>
<!DOCTYPE svg PUBLIC "-//W3C//DTD SVG 1.1//EN"
 "http://www.w3.org/Graphics/SVG/1.1/DTD/svg11.dtd">
<!-- Generated by graphviz version 2.40.1 (20161225.0304)
 -->
<!-- Title: G Pages: 1 -->
<svg width="365pt" height="518pt"
 viewBox="0.00 0.00 364.63 518.00" xmlns="http://www.w3.org/2000/svg" xmlns:xlink="http://www.w3.org/1999/xlink">
<g id="graph0" class="graph" transform="scale(.6265 .6265) rotate(0) translate(4 822.8)">
<title>G</title>
<polygon fill="#ffffff" stroke="transparent" points="-4,4 -4,-822.8 578,-822.8 578,4 -4,4"/>
<g id="clust1" class="cluster">
<title>cluster_0</title>
<polygon fill="none" stroke="#000000" stroke-dasharray="5,2" points="159,-679 159,-755.8 315,-755.8 315,-679 159,-679"/>
<text text-anchor="middle" x="237" y="-739.2" font-family="Times,serif" font-size="14.00" fill="#000000">发货</text>
</g>
<g id="clust2" class="cluster">
<title>cluster_1</title>
<polygon fill="none" stroke="#000000" stroke-dasharray="5,2" points="196,-65 196,-326.4 404,-326.4 404,-65 196,-65"/>
<text text-anchor="middle" x="300" y="-309.8" font-family="Times,serif" font-size="14.00" fill="#000000">支付</text>
</g>
<g id="clust3" class="cluster">
<title>cluster_2</title>
<polygon fill="none" stroke="#000000" stroke-dasharray="5,2" points="412,-138 412,-214.8 566,-214.8 566,-138 412,-138"/>
<text text-anchor="middle" x="489" y="-198.2" font-family="Times,serif" font-size="14.00" fill="#000000">回滚</text>
</g>
<g id="clust4" class="cluster">
<title>cluster_3</title>
<polygon fill="none" stroke="#ff0000" stroke-dasharray="5,2" points="8,-345.4 8,-660 396,-660 396,-345.4 8,-345.4"/>
<text text-anchor="middle" x="202" y="-643.4" font-family="Times,serif" font-size="14.00" fill="#000000">获取 FLAG</text>
</g>
<!-- 添加钻石个数 -->
<g id="node1" class="node">
<title>添加钻石个数</title>
<ellipse fill="none" stroke="#000000" cx="237" cy="-705" rx="69.8608" ry="18"/>
<text text-anchor="middle" x="237" y="-700.8" font-family="Times,serif" font-size="14.00" fill="#000000">添加钻石个数</text>
</g>
<!-- 检查钻石个数 -->
<g id="node5" class="node">
<title>检查钻石个数</title>
<polygon fill="none" stroke="#000000" points="237,-627.2 136.1072,-609.2 237,-591.2 337.8928,-609.2 237,-627.2"/>
<text text-anchor="middle" x="237" y="-605" font-family="Times,serif" font-size="14.00" fill="#000000">检查钻石个数</text>
</g>
<!-- 添加钻石个数&#45;&gt;检查钻石个数 -->
<g id="edge2" class="edge">
<title>添加钻石个数&#45;&gt;检查钻石个数</title>
<path fill="none" stroke="#000000" stroke-dasharray="5,2" d="M237,-686.9808C237,-673.1527 237,-653.793 237,-637.8477"/>
<polygon fill="#000000" stroke="#000000" points="240.5001,-637.4641 237,-627.4642 233.5001,-637.4642 240.5001,-637.4641"/>
</g>
<!-- 检查剩余点数 -->
<g id="node2" class="node">
<title>检查剩余点数</title>
<polygon fill="none" stroke="#000000" points="300,-293.6 204.347,-275.6 300,-257.6 395.653,-275.6 300,-293.6"/>
<text text-anchor="middle" x="300" y="-271.4" font-family="Times,serif" font-size="14.00" fill="#000000">检查剩余点数</text>
</g>
<!-- 扣除点数 -->
<g id="node3" class="node">
<title>扣除点数</title>
<ellipse fill="none" stroke="#000000" cx="300" cy="-91" rx="48.0974" ry="18"/>
<text text-anchor="middle" x="300" y="-86.8" font-family="Times,serif" font-size="14.00" fill="#000000">扣除点数</text>
</g>
<!-- 检查剩余点数&#45;&gt;扣除点数 -->
<g id="edge8" class="edge">
<title>检查剩余点数&#45;&gt;扣除点数</title>
<path fill="none" stroke="#000000" d="M300,-257.5637C300,-225.3053 300,-157.5196 300,-119.1101"/>
<polygon fill="#000000" stroke="#000000" points="303.5001,-119.1095 300,-109.1095 296.5001,-119.1096 303.5001,-119.1095"/>
<text text-anchor="middle" x="315.6149" y="-159.8" font-family="Times,serif" font-size="14.00" fill="#000000">足够</text>
</g>
<!-- 回滚钻石个数 -->
<g id="node4" class="node">
<title>回滚钻石个数</title>
<ellipse fill="none" stroke="#000000" cx="489" cy="-164" rx="68.9313" ry="18"/>
<text text-anchor="middle" x="489" y="-159.8" font-family="Times,serif" font-size="14.00" fill="#000000">回滚钻石个数</text>
</g>
<!-- 检查剩余点数&#45;&gt;回滚钻石个数 -->
<g id="edge10" class="edge">
<title>检查剩余点数&#45;&gt;回滚钻石个数</title>
<path fill="none" stroke="#000000" d="M324.6388,-262.1641C346.6532,-250.0566 379.7034,-231.6254 408,-214.8 423.36,-205.6668 440.1258,-195.2314 454.3988,-186.2042"/>
<polygon fill="#000000" stroke="#000000" points="456.3617,-189.1038 462.9287,-180.7896 452.6103,-183.1939 456.3617,-189.1038"/>
<text text-anchor="middle" x="409.7769" y="-227" font-family="Times,serif" font-size="14.00" fill="#000000">不足</text>
</g>
<!-- 交易成功 -->
<g id="node10" class="node">
<title>交易成功</title>
<ellipse fill="none" stroke="#000000" cx="300" cy="-18" rx="41.1548" ry="18"/>
<text text-anchor="middle" x="300" y="-13.8" font-family="Times,serif" font-size="14.00" fill="#000000">交易成功</text>
</g>
<!-- 扣除点数&#45;&gt;交易成功 -->
<g id="edge9" class="edge">
<title>扣除点数&#45;&gt;交易成功</title>
<path fill="none" stroke="#000000" d="M300,-72.9551C300,-64.8828 300,-55.1764 300,-46.1817"/>
<polygon fill="#000000" stroke="#000000" points="303.5001,-46.0903 300,-36.0904 296.5001,-46.0904 303.5001,-46.0903"/>
</g>
<!-- 交易失败 -->
<g id="node11" class="node">
<title>交易失败</title>
<ellipse fill="none" stroke="#000000" cx="489" cy="-91" rx="48.6772" ry="18"/>
<text text-anchor="middle" x="489" y="-86.8" font-family="Times,serif" font-size="14.00" fill="#000000">交易失败</text>
</g>
<!-- 回滚钻石个数&#45;&gt;交易失败 -->
<g id="edge11" class="edge">
<title>回滚钻石个数&#45;&gt;交易失败</title>
<path fill="none" stroke="#000000" d="M489,-145.9551C489,-137.8828 489,-128.1764 489,-119.1817"/>
<polygon fill="#000000" stroke="#000000" points="492.5001,-119.0903 489,-109.0904 485.5001,-119.0904 492.5001,-119.0903"/>
</g>
<!-- 读取_FLAG_并推入任务队列 -->
<g id="node6" class="node">
<title>读取_FLAG_并推入任务队列</title>
<ellipse fill="none" stroke="#000000" cx="155" cy="-482.4" rx="138.5768" ry="18"/>
<text text-anchor="middle" x="155" y="-478.2" font-family="Times,serif" font-size="14.00" fill="#000000">读取_FLAG_并推入任务队列</text>
</g>
<!-- 检查钻石个数&#45;&gt;读取_FLAG_并推入任务队列 -->
<g id="edge3" class="edge">
<title>检查钻石个数&#45;&gt;读取_FLAG_并推入任务队列</title>
<path fill="none" stroke="#000000" d="M226.4478,-592.8827C212.7503,-571.7017 188.6657,-534.4587 172.2822,-509.1242"/>
<polygon fill="#000000" stroke="#000000" points="175.2073,-507.2021 166.838,-500.7056 169.3293,-511.0033 175.2073,-507.2021"/>
<text text-anchor="middle" x="216.6149" y="-541.6" font-family="Times,serif" font-size="14.00" fill="#000000">足够</text>
</g>
<!-- 跳过 -->
<g id="node8" class="node">
<title>跳过</title>
<ellipse fill="none" stroke="#000000" cx="350" cy="-482.4" rx="37.9891" ry="18"/>
<text text-anchor="middle" x="350" y="-478.2" font-family="Times,serif" font-size="14.00" fill="#000000">跳过</text>
</g>
<!-- 检查钻石个数&#45;&gt;跳过 -->
<g id="edge5" class="edge">
<title>检查钻石个数&#45;&gt;跳过</title>
<path fill="none" stroke="#000000" d="M250.856,-593.6518C270.1901,-571.9566 305.4519,-532.3885 328.2924,-506.7586"/>
<polygon fill="#000000" stroke="#000000" points="330.9105,-509.0815 334.9507,-499.2872 325.6845,-504.4243 330.9105,-509.0815"/>
<text text-anchor="middle" x="315.7769" y="-541.6" font-family="Times,serif" font-size="14.00" fill="#000000">不足</text>
</g>
<!-- 写入_FLAG_至日志 -->
<g id="node7" class="node">
<title>写入_FLAG_至日志</title>
<ellipse fill="none" stroke="#000000" cx="200" cy="-371.4" rx="94.9361" ry="18"/>
<text text-anchor="middle" x="200" y="-367.2" font-family="Times,serif" font-size="14.00" fill="#000000">写入_FLAG_至日志</text>
</g>
<!-- 读取_FLAG_并推入任务队列&#45;&gt;写入_FLAG_至日志 -->
<g id="edge4" class="edge">
<title>读取_FLAG_并推入任务队列&#45;&gt;写入_FLAG_至日志</title>
<path fill="none" stroke="#000000" d="M162.4308,-464.0706C169.639,-446.2904 180.666,-419.0906 188.9118,-398.7509"/>
<polygon fill="#000000" stroke="#000000" points="192.1939,-399.9707 192.7074,-389.3883 185.7067,-397.3407 192.1939,-399.9707"/>
</g>
<!-- 写入_FLAG_至日志&#45;&gt;检查剩余点数 -->
<g id="edge6" class="edge">
<title>写入_FLAG_至日志&#45;&gt;检查剩余点数</title>
<path fill="none" stroke="#000000" stroke-dasharray="5,2" d="M218.8092,-353.3808C235.1963,-337.6819 259.0257,-314.8534 276.6329,-297.9857"/>
<polygon fill="#000000" stroke="#000000" points="279.4359,-300.1474 284.2357,-290.7022 274.5934,-295.0926 279.4359,-300.1474"/>
</g>
<!-- 跳过&#45;&gt;检查剩余点数 -->
<g id="edge7" class="edge">
<title>跳过&#45;&gt;检查剩余点数</title>
<path fill="none" stroke="#000000" stroke-dasharray="5,2" d="M345.6503,-464.4096C336.8486,-428.0058 316.885,-345.4364 306.5197,-302.5653"/>
<polygon fill="#000000" stroke="#000000" points="309.9152,-301.716 304.1631,-292.8186 303.1113,-303.3611 309.9152,-301.716"/>
</g>
<!-- 开始交易 -->
<g id="node9" class="node">
<title>开始交易</title>
<ellipse fill="none" stroke="#000000" cx="237" cy="-800.8" rx="50.9696" ry="18"/>
<text text-anchor="middle" x="237" y="-796.6" font-family="Times,serif" font-size="14.00" fill="#000000">开始交易</text>
</g>
<!-- 开始交易&#45;&gt;添加钻石个数 -->
<g id="edge1" class="edge">
<title>开始交易&#45;&gt;添加钻石个数</title>
<path fill="none" stroke="#000000" d="M237,-782.7808C237,-768.9527 237,-749.593 237,-733.6477"/>
<polygon fill="#000000" stroke="#000000" points="240.5001,-733.2641 237,-723.2642 233.5001,-733.2642 240.5001,-733.2641"/>
</g>
</g>
</svg>